<svg width="64" height="64" viewBox="0 0 64 64" fill="none" xmlns="http://www.w3.org/2000/svg">
  <path fill-rule="evenodd" clip-rule="evenodd" d="M32 14C21.5066 14 13 22.5066 13 33C13 41.3934 18.16 48.5934 25.5866 51.0334C26.5866 51.2334 26.96 50.6334 26.96 50.1C26.96 49.6334 26.94 48.2334 26.94 46.6334C22 47.7734 20.8 45.0334 20.8 45.0334C19.86 42.9334 18.5 42.3334 18.5 42.3334C16.66 41.1334 18.64 41.1334 18.64 41.1334C20.6666 41.2666 21.76 43.1334 21.76 43.1334C23.56 46.0334 26.3866 45.1334 27.0266 44.6C27.2266 43.3334 27.8266 42.4334 28.46 41.9334C24.56 41.4334 20.4666 39.8334 20.4666 32.6C20.4666 30.4666 21.2666 28.7334 21.7934 27.5334C21.5934 27.0334 20.8666 25.1334 22 22.1334C22 22.1334 23.7334 21.6 26.9334 23.8C28.5334 23.3666 30.2666 23.1334 32 23.1334C33.7334 23.1334 35.4666 23.3666 37.0666 23.8C40.2666 21.6 42 22.1334 42 22.1334C43.1334 25.1334 42.4066 27.0334 42.2066 27.5334C42.7334 28.7334 43.5334 30.4666 43.5334 32.6C43.5334 39.8334 39.44 41.4334 35.5334 41.9334C36.3334 42.5334 37.0666 43.7334 37.0666 45.5334C37.0666 48.0334 37.0466 49.4666 37.0466 50.1C37.0466 50.6334 37.4066 51.2334 38.4132 51.0334C45.84 48.5934 51 41.3934 51 33C51 22.5066 42.4934 14 32 14Z" fill="white"/>
</svg>